<svg width="295" height="72" viewBox="0 0 295 72" fill="none" xmlns="http://www.w3.org/2000/svg">
<path d="M1.86861e-05 6.38378H67.488V14.8958H1.86861e-05V6.38378ZM16.72 39.0638H50.692V46.1318H16.72V39.0638ZM15.124 51.1478H52.364V58.4438H15.124V51.1478ZM29.184 42.5598H37.772V69.3118H29.184V42.5598ZM2.88802 20.5958H57.912V28.9558H12.008V71.2878H2.88802V20.5958ZM55.328 20.5958H64.676V62.1678C64.676 64.3464 64.372 66.0184 63.764 67.1838C63.156 68.3998 62.092 69.3118 60.572 69.9198C59.0014 70.5784 57.076 70.9584 54.796 71.0598C52.5667 71.2118 49.9067 71.2878 46.816 71.2878C46.6134 70.1224 46.208 68.8051 45.6 67.3358C45.0427 65.8664 44.46 64.5998 43.852 63.5358C45.1187 63.5864 46.4107 63.6371 47.728 63.6878C49.0454 63.7384 50.236 63.7638 51.3 63.7638C52.4147 63.7131 53.1494 63.6878 53.504 63.6878C54.2134 63.6878 54.6947 63.5864 54.948 63.3838C55.2014 63.1304 55.328 62.7251 55.328 62.1678V20.5958ZM19.608 31.0078L26.828 28.8798C27.74 30.0958 28.576 31.4891 29.336 33.0598C30.1467 34.6304 30.7547 35.9984 31.16 37.1638L23.56 39.6718C23.256 38.4558 22.724 37.0371 21.964 35.4158C21.204 33.7944 20.4187 32.3251 19.608 31.0078ZM41.04 29.0318L48.716 31.1598C47.7027 32.9838 46.6894 34.7571 45.676 36.4798C44.7134 38.1518 43.776 39.6211 42.864 40.8878L36.404 38.9118C36.9614 37.9998 37.5187 36.9611 38.076 35.7958C38.684 34.6304 39.2414 33.4651 39.748 32.2998C40.2547 31.1344 40.6854 30.0451 41.04 29.0318ZM28.88 0.607777H38.836V26.5238H28.88V0.607777ZM102.904 8.73978H142.956V16.8718H102.904V8.73978ZM105.184 21.8118H133.456V29.6398H105.184V21.8118ZM92.264 36.7838H144.552V45.0678H92.264V36.7838ZM101.916 53.0478H143.716V60.7998H101.916V53.0478ZM102.98 -0.000219584L111.948 1.97578C110.479 6.99178 108.553 11.8051 106.172 16.4158C103.841 21.0264 101.308 24.8518 98.572 27.8918C98.0147 27.3851 97.2547 26.8024 96.292 26.1438C95.38 25.4851 94.4174 24.8518 93.404 24.2438C92.4414 23.5851 91.58 23.0784 90.82 22.7238C93.556 20.0891 95.9627 16.7451 98.04 12.6918C100.168 8.63844 101.815 4.40778 102.98 -0.000219584ZM101.536 21.8118H109.896C109.541 25.3078 109.136 28.9811 108.68 32.8318C108.224 36.6824 107.743 40.5078 107.236 44.3078C106.78 48.1078 106.299 51.7304 105.792 55.1758C105.285 58.6211 104.804 61.7118 104.348 64.4478L95.684 63.8398C96.2414 61.1038 96.7987 58.0131 97.356 54.5678C97.9134 51.1224 98.4454 47.5251 98.952 43.7758C99.4587 40.0264 99.94 36.2771 100.396 32.5278C100.852 28.7784 101.232 25.2064 101.536 21.8118ZM115.976 24.6998H123.88C123.677 27.3344 123.449 30.1211 123.196 33.0598C122.993 35.9478 122.74 38.8611 122.436 41.7998C122.132 44.6878 121.828 47.4238 121.524 50.0078C121.22 52.5918 120.916 54.9224 120.612 56.9998H112.86C113.164 54.8718 113.468 52.4904 113.772 49.8558C114.076 47.2211 114.38 44.4598 114.684 41.5718C114.988 38.6838 115.241 35.7958 115.444 32.9078C115.647 30.0198 115.824 27.2838 115.976 24.6998ZM130.948 21.8118H139.384C139.384 21.8118 139.359 22.0651 139.308 22.5718C139.308 23.0278 139.308 23.5598 139.308 24.1678C139.308 24.7758 139.283 25.2318 139.232 25.5358C138.979 32.7304 138.7 38.8358 138.396 43.8518C138.092 48.8171 137.737 52.9211 137.332 56.1638C136.977 59.3558 136.547 61.8638 136.04 63.6878C135.533 65.5118 134.976 66.8291 134.368 67.6398C133.507 68.8558 132.595 69.6918 131.632 70.1478C130.669 70.6038 129.555 70.9331 128.288 71.1358C127.123 71.3384 125.679 71.4398 123.956 71.4398C122.284 71.4398 120.511 71.4144 118.636 71.3638C118.585 70.2491 118.357 68.9824 117.952 67.5638C117.547 66.1451 117.04 64.9291 116.432 63.9158C118.104 64.0171 119.624 64.0931 120.992 64.1438C122.36 64.1944 123.424 64.2198 124.184 64.2198C124.792 64.2198 125.299 64.1438 125.704 63.9918C126.16 63.8398 126.565 63.5104 126.92 63.0038C127.427 62.4464 127.857 61.3318 128.212 59.6598C128.617 57.9878 128.972 55.6318 129.276 52.5918C129.631 49.5011 129.935 45.5744 130.188 40.8118C130.441 36.0491 130.695 30.2984 130.948 23.5598V21.8118ZM75.924 7.29578L81.016 0.607777C82.4854 1.21578 84.0307 1.95045 85.652 2.81178C87.2734 3.67311 88.8187 4.55978 90.288 5.47178C91.7574 6.38378 92.9227 7.29578 93.784 8.20778L88.388 15.4278C87.5267 14.5664 86.3867 13.6544 84.968 12.6918C83.6 11.6784 82.1054 10.6904 80.484 9.72778C78.9134 8.76511 77.3934 7.95444 75.924 7.29578ZM72.428 27.5878L77.52 20.8998C78.9894 21.4571 80.5094 22.1411 82.08 22.9518C83.7014 23.7118 85.2214 24.5478 86.64 25.4598C88.1094 26.3718 89.3 27.2331 90.212 28.0438L84.892 35.4158C84.0307 34.5544 82.8907 33.6424 81.472 32.6798C80.104 31.7171 78.6094 30.8051 76.988 29.9438C75.4174 29.0318 73.8974 28.2464 72.428 27.5878ZM73.872 65.7398C74.9867 63.7131 76.1774 61.3571 77.444 58.6718C78.7614 55.9864 80.0787 53.1238 81.396 50.0838C82.7134 47.0438 83.9294 44.0291 85.044 41.0398L92.34 46.1318C91.3774 48.8171 90.3134 51.5784 89.148 54.4158C88.0334 57.2531 86.868 60.0651 85.652 62.8518C84.4867 65.6384 83.3214 68.2731 82.156 70.7558L73.872 65.7398ZM182.856 36.7838C180.677 38.7091 177.916 40.6344 174.572 42.5598C171.279 44.4344 167.681 46.1824 163.78 47.8038C159.929 49.3744 156.028 50.6918 152.076 51.7558C151.671 50.6918 151.037 49.4504 150.176 48.0318C149.315 46.5624 148.504 45.3718 147.744 44.4598C151.797 43.4971 155.724 42.2811 159.524 40.8118C163.375 39.3424 166.921 37.6958 170.164 35.8718C173.407 33.9971 176.092 32.0718 178.22 30.0958H186.808C189.645 32.3758 192.812 34.4024 196.308 36.1758C199.804 37.9491 203.452 39.4438 207.252 40.6598C211.052 41.8758 214.852 42.8638 218.652 43.6238C217.74 44.6371 216.828 45.8784 215.916 47.3478C215.004 48.8171 214.219 50.1344 213.56 51.2998C211.077 50.6918 208.417 49.8811 205.58 48.8678C202.793 47.8038 200.007 46.6384 197.22 45.3718C194.433 44.0544 191.799 42.6864 189.316 41.2678C186.833 39.7984 184.68 38.3038 182.856 36.7838ZM176.016 0.151778L181.032 5.77578C178.245 6.63711 175.104 7.37178 171.608 7.97978C168.163 8.53711 164.591 8.96778 160.892 9.27178C157.244 9.52511 153.723 9.70244 150.328 9.80378C150.227 8.94245 149.973 7.95445 149.568 6.83978C149.163 5.67444 148.783 4.68645 148.428 3.87578C151.62 3.67311 154.939 3.41978 158.384 3.11578C161.829 2.81178 165.072 2.40644 168.112 1.89978C171.203 1.39311 173.837 0.810446 176.016 0.151778ZM161.652 6.15578H170.012V35.1878H161.652V6.15578ZM148.352 12.8438H181.184V19.6078H148.352V12.8438ZM188.48 7.90378H210.672V15.4278H188.48V7.90378ZM169.556 19.2278C170.164 19.4811 171.025 19.9118 172.14 20.5198C173.305 21.0771 174.521 21.6851 175.788 22.3438C177.055 23.0024 178.22 23.6358 179.284 24.2438C180.399 24.8011 181.209 25.2318 181.716 25.5358L177.536 31.7678C176.827 31.2104 175.94 30.5264 174.876 29.7158C173.863 28.9051 172.748 28.0944 171.532 27.2838C170.367 26.4224 169.227 25.6118 168.112 24.8518C167.048 24.0918 166.136 23.4838 165.376 23.0278L169.556 19.2278ZM208.088 7.90378H216.296C216.296 7.90378 216.271 8.30911 216.22 9.11978C216.22 9.87978 216.169 10.5131 216.068 11.0198C215.815 15.5798 215.511 19.3544 215.156 22.3438C214.801 25.2824 214.421 27.5878 214.016 29.2598C213.611 30.8811 213.079 32.0464 212.42 32.7558C211.761 33.5664 211.052 34.1744 210.292 34.5798C209.583 34.9344 208.747 35.1624 207.784 35.2638C207.024 35.4158 206.011 35.5171 204.744 35.5678C203.528 35.5678 202.236 35.5424 200.868 35.4918C200.817 34.3264 200.615 33.0598 200.26 31.6918C199.905 30.2731 199.424 29.0571 198.816 28.0438C199.88 28.1451 200.817 28.2211 201.628 28.2718C202.439 28.2718 203.072 28.2718 203.528 28.2718C203.984 28.2718 204.364 28.2211 204.668 28.1198C205.023 28.0184 205.352 27.7904 205.656 27.4358C205.96 27.0304 206.264 26.1691 206.568 24.8518C206.872 23.5344 207.151 21.6091 207.404 19.0758C207.657 16.5424 207.885 13.1984 208.088 9.04378V7.90378ZM189.62 0.0757794L197.6 1.74778C196.333 5.80111 194.636 9.65178 192.508 13.2998C190.38 16.9478 188.049 19.9878 185.516 22.4198C185.009 21.9131 184.351 21.3811 183.54 20.8238C182.729 20.2158 181.868 19.6331 180.956 19.0758C180.095 18.5184 179.335 18.0878 178.676 17.7838C181.209 15.7064 183.413 13.0971 185.288 9.95578C187.163 6.81444 188.607 3.52111 189.62 0.0757794ZM196.764 11.5518L204.668 13.2238C203.401 17.1251 201.679 20.7478 199.5 24.0918C197.372 27.4358 195.041 30.2478 192.508 32.5278C192.052 32.1224 191.393 31.6411 190.532 31.0838C189.671 30.4758 188.809 29.8931 187.948 29.3358C187.087 28.7784 186.352 28.3224 185.744 27.9678C188.277 26.0424 190.507 23.6358 192.432 20.7478C194.357 17.8598 195.801 14.7944 196.764 11.5518ZM178.448 42.1798H187.036V63.7638C187.036 65.5371 186.833 66.9304 186.428 67.9438C186.023 68.9571 185.237 69.7678 184.072 70.3758C182.907 70.9331 181.539 71.2624 179.968 71.3638C178.397 71.5158 176.599 71.5918 174.572 71.5918C174.42 70.4771 174.091 69.2611 173.584 67.9438C173.128 66.6264 172.672 65.4611 172.216 64.4478C173.28 64.4984 174.319 64.5238 175.332 64.5238C176.345 64.5238 177.029 64.5238 177.384 64.5238C178.093 64.5238 178.448 64.1944 178.448 63.5358V42.1798ZM161.576 49.8558L168.188 46.2078C169.303 47.1704 170.392 48.2851 171.456 49.5518C172.571 50.7678 173.407 51.8824 173.964 52.8958L167.048 56.9998C166.541 56.0371 165.756 54.8718 164.692 53.5038C163.679 52.1358 162.64 50.9198 161.576 49.8558ZM152.836 61.7118C155.572 60.9518 158.916 59.9638 162.868 58.7478C166.82 57.5318 170.823 56.3158 174.876 55.0998L176.016 61.3318C172.723 62.6998 169.379 64.0424 165.984 65.3598C162.589 66.6771 159.473 67.8678 156.636 68.9318L152.836 61.7118ZM197.22 45.8278L204.516 49.1718C203.3 50.5904 202.084 51.9331 200.868 53.1998C199.652 54.4664 198.537 55.5811 197.524 56.5438L191.216 53.4278C192.179 52.4144 193.243 51.1731 194.408 49.7038C195.573 48.2344 196.511 46.9424 197.22 45.8278ZM185.592 60.2678L190.836 54.8718C193.319 55.5811 195.903 56.4424 198.588 57.4558C201.273 58.4691 203.857 59.5078 206.34 60.5718C208.873 61.5851 211.027 62.5478 212.8 63.4598L207.556 69.3878C205.833 68.4251 203.731 67.3864 201.248 66.2718C198.765 65.1571 196.131 64.0678 193.344 63.0038C190.608 61.9398 188.024 61.0278 185.592 60.2678ZM161.804 16.4918L167.732 18.7718C166.567 21.0011 165.123 23.2304 163.4 25.4598C161.728 27.6384 159.929 29.6651 158.004 31.5398C156.079 33.4144 154.153 35.0104 152.228 36.3278C151.671 35.3651 150.835 34.3011 149.72 33.1358C148.656 31.9704 147.693 31.0331 146.832 30.3238C148.656 29.3611 150.505 28.1198 152.38 26.5998C154.305 25.0798 156.079 23.4584 157.7 21.7358C159.372 19.9624 160.74 18.2144 161.804 16.4918ZM234.08 2.65978H278.54V11.4758H234.08V2.65978ZM230.28 2.65978H239.704V24.0918C239.704 27.4864 239.552 31.2611 239.248 35.4158C238.995 39.5704 238.488 43.8264 237.728 48.1838C237.019 52.5411 235.955 56.7718 234.536 60.8758C233.117 64.9291 231.243 68.5771 228.912 71.8198C228.405 71.2118 227.671 70.4771 226.708 69.6158C225.796 68.8051 224.833 68.0198 223.82 67.2598C222.807 66.4998 221.971 65.9678 221.312 65.6638C223.389 62.6744 225.011 59.4318 226.176 55.9358C227.392 52.3891 228.279 48.7664 228.836 45.0678C229.444 41.3184 229.824 37.6451 229.976 34.0478C230.179 30.4504 230.28 27.1318 230.28 24.0918V2.65978ZM274.208 2.65978H283.404C283.303 10.3104 283.227 17.2518 283.176 23.4838C283.125 29.6651 283.125 35.1118 283.176 39.8238C283.277 44.4851 283.455 48.3864 283.708 51.5278C284.012 54.6691 284.417 57.0504 284.924 58.6718C285.481 60.2424 286.191 61.0278 287.052 61.0278C287.356 61.0278 287.584 60.5211 287.736 59.5078C287.939 58.4438 288.091 57.0504 288.192 55.3278C288.344 53.5544 288.445 51.6798 288.496 49.7038C289.256 50.8691 290.168 52.1358 291.232 53.5038C292.296 54.8718 293.233 55.9611 294.044 56.7718C293.74 60.0144 293.309 62.6744 292.752 64.7518C292.245 66.8291 291.485 68.3491 290.472 69.3118C289.459 70.2744 288.065 70.7558 286.292 70.7558C283.151 70.7558 280.719 69.3371 278.996 66.4998C277.324 63.6624 276.159 59.4318 275.5 53.8078C274.841 48.1331 274.461 41.0651 274.36 32.6038C274.259 24.0918 274.208 14.1104 274.208 2.65978ZM240.464 22.2678L247.836 18.3918C250.268 21.2798 252.751 24.3958 255.284 27.7398C257.868 31.0331 260.376 34.3771 262.808 37.7718C265.24 41.1158 267.469 44.3838 269.496 47.5758C271.523 50.7171 273.169 53.5798 274.436 56.1638L266.152 60.9518C264.987 58.4184 263.441 55.5558 261.516 52.3638C259.641 49.1211 257.513 45.7771 255.132 42.3318C252.801 38.8358 250.369 35.3651 247.836 31.9198C245.303 28.4744 242.845 25.2571 240.464 22.2678ZM263.568 15.8078L271.548 18.0878C270.129 22.5971 268.432 26.9798 266.456 31.2358C264.531 35.4918 262.403 39.5704 260.072 43.4718C257.741 47.3224 255.233 50.8691 252.548 54.1118C249.913 57.3544 247.101 60.2171 244.112 62.6998C243.605 61.9904 242.972 61.2051 242.212 60.3438C241.452 59.4318 240.641 58.5704 239.78 57.7598C238.969 56.9491 238.235 56.2651 237.576 55.7078C240.413 53.6304 243.124 51.1224 245.708 48.1838C248.292 45.2451 250.699 42.0278 252.928 38.5318C255.208 34.9851 257.26 31.2864 259.084 27.4358C260.908 23.5851 262.403 19.7091 263.568 15.8078Z" fill="#6AC1BB"/>
</svg>
