<svg width="255" height="264" viewBox="0 0 255 264" fill="none" xmlns="http://www.w3.org/2000/svg">
<g filter="url(#filter0_d_170_15)">
<path d="M63.8356 151.42C65.8797 152.986 68.1779 154.778 70.8077 156.846C92.424 173.842 109.882 174.661 122.741 171.355C124.983 170.778 127.363 169.309 129.504 167.161C130.843 176.359 126.049 185.758 121.689 188.753C112.045 195.377 97.2807 199.882 73.9656 191.938C50.6502 183.994 52.6594 181.447 33.5812 182.337C17.6881 183.079 9.7742 195.014 6.57138 197.684C9.91914 193.67 15.1821 183.29 21.7906 177.979C30.4462 170.616 47.1698 159.08 63.8356 151.42ZM129.591 167.041C129.603 167.038 129.615 167.034 129.627 167.031C129.585 167.074 129.546 167.119 129.504 167.161C129.495 167.096 129.482 167.031 129.472 166.966C129.512 166.991 129.552 167.016 129.591 167.041ZM132.344 166.262C131.537 166.574 130.813 166.789 130.199 166.88C130.948 166.68 131.662 166.474 132.344 166.262ZM129.726 166.925C129.875 166.919 130.033 166.905 130.199 166.88C130.011 166.931 129.82 166.982 129.627 167.031C129.661 166.997 129.692 166.96 129.726 166.925ZM144.826 158.975C142.551 161.642 138.99 164.203 132.344 166.262C135.835 164.914 140.843 161.753 144.826 158.975ZM125.153 125.184C130.328 130.076 132.567 134.974 134.687 140.422C138.923 151.31 135.153 161.313 129.726 166.925C129.636 166.929 129.548 166.928 129.465 166.925C129.042 164.233 128.089 161.565 126.441 159.083C120.543 141.401 121.855 129.38 125.053 125.312C125.087 125.269 125.12 125.226 125.153 125.184ZM129.465 166.925C129.467 166.939 129.47 166.952 129.472 166.966C129.449 166.952 129.427 166.938 129.404 166.923C129.424 166.925 129.444 166.924 129.465 166.925ZM129.404 166.923C129.4 166.923 129.397 166.923 129.394 166.923C129.392 166.92 129.391 166.917 129.389 166.914C129.394 166.917 129.399 166.92 129.404 166.923ZM103.906 144.682C116.972 146.795 119.526 150.904 124.844 156.988C125.438 157.667 125.967 158.368 126.441 159.083C127.275 161.582 128.252 164.195 129.389 166.914C113.118 156.726 108.633 152.16 103.906 144.682ZM202.208 44.6234C204.921 49.4832 211.451 63.3444 212.894 73.9225C214.177 83.3354 217.622 95.447 202.717 119.496C187.812 143.546 151.32 154.085 149.976 155.168C148.822 156.098 146.972 157.479 144.826 158.975C147.178 156.22 148.157 153.353 149.74 150.806C156.934 139.227 163.624 124.295 157.433 105.048C156.223 101.287 155.01 97.9108 153.81 94.8755C160.324 90.2205 165.627 87.5801 168.004 85.9668C172.577 82.863 190.678 70.4178 197.56 54.4657C200.358 47.9801 201.706 45.531 202.208 44.6234ZM20.9268 122.796C37.2171 116.812 67.0816 107.339 89.7295 109.182C91.7068 122.903 94.5822 129.023 100.106 138.36C101.515 140.741 102.719 142.803 103.906 144.682C101.211 144.246 98.0691 143.896 94.3632 143.63C85.7581 143.012 74.8093 146.376 63.8356 151.42C49.0783 140.114 47.5252 140.649 29.4239 135.204C12.2556 130.04 -1.43698 133.852 -5.89358 135.44C-0.751824 132.504 11.8105 125.865 20.9268 122.796ZM113.397 22.7175C112.927 24.0821 113.647 28.0528 118.651 37.287C126.775 52.2786 134.742 64.1048 138.282 68.4024C141.269 72.028 147.338 78.4948 153.81 94.8755C147.792 99.1762 140.741 105.197 134.014 113.722C130.677 117.949 130.717 118.104 125.153 125.184C120.783 121.053 114.319 116.925 104.065 112.476C99.8475 110.646 94.9826 109.609 89.7295 109.182C89.0098 104.188 88.4069 98.187 87.8415 90.6574C86.0174 66.362 94.0463 55.0375 100.207 42.8772C106.019 31.4033 109.731 26.1441 113.397 22.7175Z" fill="#D23577"/>
<path d="M94.5917 210.28C93.4209 195.589 102.492 188.08 107.174 186.162C130.35 183.771 133.894 200.298 133.894 208.423C128.501 209.809 119.949 212.837 112.381 218.785C106.327 223.542 102.541 235.868 103.412 237.357C99.07 234.216 95.7625 224.97 94.5917 210.28Z" fill="#D23577"/>
<path d="M140.796 154.992C153.968 131.704 156.213 120.727 182.229 117.347C204.28 114.483 214.577 117.858 224.893 125.423C232.393 130.923 236.632 140.316 238.894 144.423C227.894 141.424 225.958 142.076 215.993 150.172C203.882 160.012 196.852 167.586 193.206 171.138C189.56 174.691 178.694 183.492 167.371 188.099C161.421 190.519 153.273 191.93 146.129 191.398C144.897 183.12 140.188 171.523 129.677 166.359C133.452 164.627 137.342 161.098 140.796 154.992ZM202.393 120.923C201.893 122.424 201.755 125.32 193.353 134.623C182.409 146.739 175.251 150.699 162.058 159.01C206.003 145.59 202.245 126.901 202.393 120.923Z" fill="#D23577"/>
</g>
<defs>
<filter id="filter0_d_170_15" x="-9.89359" y="17.7168" width="260.787" height="230.641" filterUnits="userSpaceOnUse" color-interpolation-filters="sRGB">
<feFlood flood-opacity="0" result="BackgroundImageFix"/>
<feColorMatrix in="SourceAlpha" type="matrix" values="0 0 0 0 0 0 0 0 0 0 0 0 0 0 0 0 0 0 127 0" result="hardAlpha"/>
<feOffset dx="4" dy="3"/>
<feGaussianBlur stdDeviation="4"/>
<feComposite in2="hardAlpha" operator="out"/>
<feColorMatrix type="matrix" values="0 0 0 0 0.858333 0 0 0 0 0.590104 0 0 0 0 0.702863 0 0 0 0.87 0"/>
<feBlend mode="normal" in2="BackgroundImageFix" result="effect1_dropShadow_170_15"/>
<feBlend mode="normal" in="SourceGraphic" in2="effect1_dropShadow_170_15" result="shape"/>
</filter>
</defs>
</svg>
