<svg width="297" height="72" viewBox="0 0 297 72" fill="none" xmlns="http://www.w3.org/2000/svg">
<path d="M0.607992 39.7478H39.064V47.1198H0.607992V39.7478ZM1.51999 12.9198H38.836V20.1398H1.51999V12.9198ZM14.364 34.3518L22.8 36.0998C21.5333 38.7344 20.1653 41.4451 18.696 44.2318C17.2773 47.0184 15.8587 49.7291 14.44 52.3638C13.0213 54.9478 11.704 57.2531 10.488 59.2798L2.50799 56.8478C3.72399 54.9224 5.01599 52.6678 6.38399 50.0838C7.80266 47.4998 9.19599 44.8398 10.564 42.1038C11.9827 39.3171 13.2493 36.7331 14.364 34.3518ZM25.08 44.8398L33.516 45.5998C32.8067 49.6024 31.7427 53.0478 30.324 55.9358C28.956 58.7731 27.1067 61.2051 24.776 63.2318C22.496 65.2078 19.7093 66.8544 16.416 68.1718C13.1227 69.5398 9.19599 70.6798 4.63599 71.5918C4.38266 70.3251 3.90133 68.9824 3.19199 67.5638C2.48266 66.1451 1.74799 64.9798 0.987992 64.0678C6.00399 63.4091 10.1333 62.3704 13.376 60.9518C16.6693 59.5331 19.2533 57.5318 21.128 54.9478C23.0027 52.3638 24.32 48.9944 25.08 44.8398ZM30.476 0.987777L38.152 4.10378C36.936 5.77578 35.72 7.44778 34.504 9.11978C33.3387 10.7411 32.2747 12.1344 31.312 13.2998L25.46 10.7158C26.3213 9.39844 27.2333 7.82778 28.196 6.00378C29.1587 4.12911 29.9187 2.45711 30.476 0.987777ZM16.036 -0.000219584H24.396V35.4158H16.036V-0.000219584ZM3.41999 4.10378L9.95599 1.36778C10.9693 2.78644 11.9067 4.38244 12.768 6.15578C13.6293 7.92911 14.2373 9.47445 14.592 10.7918L7.59999 13.8318C7.34666 12.5144 6.81466 10.9438 6.00399 9.11978C5.19333 7.29578 4.33199 5.62378 3.41999 4.10378ZM16.264 16.4918L22.116 20.0638C20.9 22.0904 19.304 24.1171 17.328 26.1438C15.4027 28.1704 13.3253 30.0704 11.096 31.8438C8.91733 33.5664 6.76399 35.0358 4.63599 36.2518C4.12933 35.2891 3.41999 34.1491 2.50799 32.8318C1.64666 31.5144 0.810658 30.4504 -8.18074e-06 29.6398C2.02666 28.7784 4.07866 27.6638 6.15599 26.2958C8.23333 24.8771 10.1587 23.3318 11.932 21.6598C13.756 19.9371 15.2 18.2144 16.264 16.4918ZM23.636 18.6958C24.3453 19.0504 25.308 19.5824 26.524 20.2918C27.7907 21.0011 29.1333 21.7864 30.552 22.6478C32.0213 23.4584 33.3387 24.2184 34.504 24.9278C35.72 25.6371 36.5813 26.1691 37.088 26.5238L32.3 32.8318C31.5907 32.1731 30.6787 31.3624 29.564 30.3998C28.4493 29.4371 27.2587 28.4491 25.992 27.4358C24.7253 26.4224 23.5093 25.4598 22.344 24.5478C21.1787 23.6358 20.1653 22.9011 19.304 22.3438L23.636 18.6958ZM44.08 13.8318H72.048V22.2678H44.08V13.8318ZM44.916 -0.000219584L54.188 1.36778C53.3773 6.58645 52.3387 11.6531 51.072 16.5678C49.8053 21.4318 48.26 25.9411 46.436 30.0958C44.6627 34.1998 42.5853 37.8224 40.204 40.9638C39.748 40.3558 39.0893 39.6464 38.228 38.8358C37.3667 38.0251 36.4547 37.2398 35.492 36.4798C34.5293 35.6691 33.7187 35.0104 33.06 34.5038C35.188 31.8691 37.012 28.7531 38.532 25.1558C40.1027 21.5078 41.42 17.5558 42.484 13.2998C43.548 8.99311 44.3587 4.55978 44.916 -0.000219584ZM58.748 18.9998L68.096 19.9118C66.9813 28.5758 65.2587 36.2011 62.928 42.7878C60.648 49.3744 57.4813 55.0491 53.428 59.8118C49.3747 64.5744 44.156 68.5518 37.772 71.7438C37.468 71.0344 37.012 70.1478 36.404 69.0838C35.796 68.0198 35.1373 66.9558 34.428 65.8918C33.7187 64.8784 33.06 64.0678 32.452 63.4598C38.228 60.9264 42.8893 57.6331 46.436 53.5798C50.0333 49.5264 52.7947 44.6371 54.72 38.9118C56.6453 33.1358 57.988 26.4984 58.748 18.9998ZM49.248 20.5958C50.312 26.9798 51.8067 32.9838 53.732 38.6078C55.6573 44.2318 58.1907 49.1718 61.332 53.4278C64.4733 57.6838 68.3493 61.0278 72.96 63.4598C72.3013 64.0171 71.5667 64.7518 70.756 65.6638C69.9453 66.6264 69.16 67.6144 68.4 68.6278C67.6907 69.6411 67.108 70.5531 66.652 71.3638C61.5347 68.3238 57.304 64.3971 53.96 59.5838C50.6667 54.7704 48.0067 49.1971 45.98 42.8638C43.9533 36.4798 42.3067 29.5131 41.04 21.9638L49.248 20.5958ZM9.19599 56.9238L14.06 50.7678C17.0493 51.8824 20.0133 53.1744 22.952 54.6438C25.9413 56.1131 28.7027 57.6331 31.236 59.2038C33.82 60.7238 35.9733 62.1931 37.696 63.6118L31.312 70.0718C29.7413 68.6531 27.7653 67.1584 25.384 65.5878C23.0027 64.0171 20.4187 62.4971 17.632 61.0278C14.8453 59.5078 12.0333 58.1398 9.19599 56.9238ZM90.668 22.0398H124.64V30.3238H90.668V22.0398ZM77.748 40.8878H144.248V49.5518H77.748V40.8878ZM105.944 36.0998H115.672V61.0278C115.672 63.4598 115.317 65.3598 114.608 66.7278C113.949 68.0958 112.683 69.1344 110.808 69.8438C109.035 70.5024 106.907 70.9078 104.424 71.0598C101.992 71.2624 99.18 71.3638 95.988 71.3638C95.836 70.4518 95.532 69.4131 95.076 68.2478C94.62 67.1331 94.1387 66.0184 93.632 64.9038C93.1253 63.7891 92.6187 62.8264 92.112 62.0158C93.6827 62.0664 95.2787 62.1171 96.9 62.1678C98.5213 62.1678 99.9907 62.1678 101.308 62.1678C102.625 62.1678 103.512 62.1678 103.968 62.1678C104.728 62.1678 105.235 62.0664 105.488 61.8638C105.792 61.6611 105.944 61.3064 105.944 60.7998V36.0998ZM121.828 22.0398H124.26L126.312 21.6598L132.24 26.1438C130.568 28.0184 128.693 29.9438 126.616 31.9198C124.589 33.8451 122.385 35.6691 120.004 37.3918C117.673 39.1144 115.292 40.6344 112.86 41.9518C112.303 41.1411 111.517 40.2544 110.504 39.2918C109.541 38.2784 108.731 37.4678 108.072 36.8598C109.896 35.7451 111.695 34.4278 113.468 32.9078C115.241 31.3878 116.863 29.8171 118.332 28.1958C119.801 26.5744 120.967 25.1304 121.828 23.8638V22.0398ZM105.868 0.0757794H115.596V13.9838H105.868V0.0757794ZM77.976 7.37178H143.64V27.1318H134.216V16.0358H86.944V27.1318H77.976V7.37178ZM154.66 10.7918H216.22V19.0758H154.66V10.7918ZM158.84 23.3318H212.268V31.1598H158.84V23.3318ZM150.86 35.5678H220.096V43.8518H150.86V35.5678ZM180.5 14.5918H189.924V40.0518H180.5V14.5918ZM169.024 43.3958H178.828C178.473 46.5878 177.891 49.5771 177.08 52.3638C176.269 55.1504 175.028 57.7344 173.356 60.1158C171.684 62.4464 169.404 64.5744 166.516 66.4998C163.679 68.4251 160.005 70.0718 155.496 71.4398C155.141 70.6291 154.66 69.6918 154.052 68.6278C153.444 67.6144 152.785 66.6011 152.076 65.5878C151.367 64.6251 150.683 63.8144 150.024 63.1558C153.875 62.1931 156.991 61.0531 159.372 59.7358C161.753 58.3678 163.577 56.8478 164.844 55.1758C166.161 53.5038 167.099 51.6798 167.656 49.7038C168.264 47.7278 168.72 45.6251 169.024 43.3958ZM189.772 43.0158H199.12V59.2798C199.12 60.4958 199.297 61.2558 199.652 61.5598C200.007 61.8638 200.843 62.0158 202.16 62.0158C202.464 62.0158 202.92 62.0158 203.528 62.0158C204.187 62.0158 204.921 62.0158 205.732 62.0158C206.543 62.0158 207.303 62.0158 208.012 62.0158C208.721 62.0158 209.253 62.0158 209.608 62.0158C210.419 62.0158 211.027 61.7878 211.432 61.3318C211.888 60.8758 212.192 59.9638 212.344 58.5958C212.547 57.1771 212.699 55.0238 212.8 52.1358C213.459 52.6424 214.269 53.1238 215.232 53.5798C216.195 54.0358 217.208 54.4664 218.272 54.8718C219.336 55.2264 220.273 55.5051 221.084 55.7078C220.78 59.5584 220.248 62.5478 219.488 64.6758C218.779 66.8038 217.715 68.2731 216.296 69.0838C214.877 69.9451 212.927 70.3758 210.444 70.3758C209.988 70.3758 209.329 70.3758 208.468 70.3758C207.607 70.3758 206.669 70.3758 205.656 70.3758C204.643 70.3758 203.68 70.3758 202.768 70.3758C201.907 70.3758 201.248 70.3758 200.792 70.3758C197.853 70.3758 195.573 70.0211 193.952 69.3118C192.381 68.6531 191.292 67.5131 190.684 65.8918C190.076 64.2704 189.772 62.0918 189.772 59.3558V43.0158ZM163.856 3.19178L171.684 0.0757794C173.052 1.54511 174.293 3.19178 175.408 5.01578C176.573 6.83978 177.435 8.48645 177.992 9.95578L169.784 13.5278C169.328 12.0584 168.543 10.3611 167.428 8.43578C166.313 6.45978 165.123 4.71178 163.856 3.19178ZM198.132 -0.000219584L208.164 2.43178C206.796 4.40778 205.403 6.30778 203.984 8.13178C202.565 9.95578 201.273 11.5011 200.108 12.7678L192.356 10.4118C193.065 9.44911 193.775 8.35978 194.484 7.14378C195.193 5.92778 195.877 4.68645 196.536 3.41978C197.195 2.15311 197.727 1.01311 198.132 -0.000219584ZM250.192 4.93978H293.816V12.0078H250.192V4.93978ZM248.52 17.7838H295.26V25.2318H248.52V17.7838ZM266.836 0.303777H275.804V9.65178H266.836V0.303777ZM278.312 10.6398L287.204 12.3118C286.444 13.6798 285.76 14.9718 285.152 16.1878C284.544 17.3531 283.987 18.3664 283.48 19.2278L275.576 17.7078C276.083 16.6438 276.589 15.4531 277.096 14.1358C277.603 12.8184 278.008 11.6531 278.312 10.6398ZM256.728 12.5398L264.632 10.8678C265.24 11.8304 265.772 12.9451 266.228 14.2118C266.735 15.4784 267.089 16.5931 267.292 17.5558L259.008 19.4558C258.907 18.4931 258.628 17.3784 258.172 16.1118C257.716 14.7944 257.235 13.6038 256.728 12.5398ZM261.364 42.8638V46.7398H282.796V42.8638H261.364ZM261.364 33.8198V37.5438H282.796V33.8198H261.364ZM252.776 28.1198H291.688V52.3638H252.776V28.1198ZM273.676 50.6158H282.34V61.2558C282.34 62.1678 282.416 62.7504 282.568 63.0038C282.771 63.2571 283.201 63.3838 283.86 63.3838C284.063 63.3838 284.392 63.3838 284.848 63.3838C285.355 63.3838 285.836 63.3838 286.292 63.3838C286.748 63.3838 287.103 63.3838 287.356 63.3838C287.812 63.3838 288.141 63.2318 288.344 62.9278C288.547 62.6238 288.699 62.0158 288.8 61.1038C288.952 60.1918 289.053 58.7731 289.104 56.8478C289.661 57.2531 290.371 57.6838 291.232 58.1398C292.144 58.5451 293.081 58.9251 294.044 59.2798C295.057 59.5838 295.944 59.8371 296.704 60.0398C296.451 62.9784 295.995 65.2584 295.336 66.8798C294.728 68.5011 293.841 69.6158 292.676 70.2238C291.561 70.8318 290.117 71.1358 288.344 71.1358C287.989 71.1358 287.533 71.1358 286.976 71.1358C286.469 71.1358 285.912 71.1358 285.304 71.1358C284.747 71.1358 284.215 71.1358 283.708 71.1358C283.201 71.1358 282.771 71.1358 282.416 71.1358C280.035 71.1358 278.211 70.8064 276.944 70.1478C275.677 69.5398 274.816 68.5264 274.36 67.1078C273.904 65.6891 273.676 63.7638 273.676 61.3318V50.6158ZM259.768 50.2358H268.66C268.305 52.8198 267.723 55.2011 266.912 57.3798C266.152 59.5584 265.012 61.5344 263.492 63.3078C261.972 65.0811 259.92 66.6771 257.336 68.0958C254.752 69.5144 251.484 70.7304 247.532 71.7438C247.279 70.9838 246.848 70.0971 246.24 69.0838C245.683 68.1211 245.075 67.1838 244.416 66.2718C243.808 65.3598 243.2 64.6251 242.592 64.0678C245.936 63.4091 248.672 62.6491 250.8 61.7878C252.928 60.8758 254.575 59.8624 255.74 58.7478C256.956 57.5824 257.868 56.3158 258.476 54.9478C259.084 53.5291 259.515 51.9584 259.768 50.2358ZM225.264 18.2398H248.14V26.7518H225.264V18.2398ZM232.788 1.21578H241.3V51.6798H232.788V1.21578ZM223.516 50.9198C225.644 50.1598 228.051 49.2478 230.736 48.1838C233.421 47.1198 236.284 45.9544 239.324 44.6878C242.364 43.4211 245.379 42.1544 248.368 40.8878L250.344 49.0198C246.341 50.8944 242.263 52.7944 238.108 54.7198C233.953 56.6451 230.128 58.4184 226.632 60.0398L223.516 50.9198Z" fill="#D23577"/>
</svg>
